.
 
http://www.scenetime.com    -   SceneTime [ We been having it ] !!!


How come you press harder on a remote control when you know the battery is dead? so you better seed to get speed ;)

        Seed back for speed


...................................NFO:.................................................   :::'###::::'##::: ##::::'###::::'########:::'######::'##::::'##:'##:::'##:
   ::'## ##::: ###:: ##:::'## ##::: ##.... ##:'##... ##: ##:::: ##:. ##:'##::
   :'##:. ##:: ####: ##::'##:. ##:: ##:::: ##: ##:::..:: ##:::: ##::. ####:::
   '##:::. ##: ## ## ##:'##:::. ##: ########:: ##::::::: #########:::. ##::::
    #########: ##. ####: #########: ##.. ##::: ##::::::: ##.... ##:::: ##::::
    ##.... ##: ##:. ###: ##.... ##: ##::. ##:: ##::: ##: ##:::: ##:::: ##::::
    ##:::: ##: ##::. ##: ##:::: ##: ##:::. ##:. ######:: ##:::: ##:::: ##::::
   ..:::::..::..::::..::..:::::..::..:::::..:::......:::..:::::..:::::..:::::

 
 
                                                                             
  Info ...                                                                   
  Title    : Love Birds (2011) BRRip Xvid AC3-Anarchy                        
  Genre    : Comedy | Romance                                                
  Language : English                                                         
  Subs     : English                                                         
  Size     : 1.17 GiB                                                        
  Source   : BluRay.x264-aaf(Thanks)                                         
  Ripper   : fasamoo                                                         
 


   links ....
 > RT       : <
 > imdb     : http://www.imdb.com/title/tt1636539/<
 > youtube  :

 
                                                                             
  Plot ...                                                                   
  Doug (Rhys Darby) lives in the perfect no worry world but his life         
  shatters when long term girlfriend Susan (Faye Smythe) dumps him. Though   
  Doug discovers an injured duck and starts to nurse it better. This new     
  found motivation propels Doug into a new journey in his life which causes  
  him to fall in love with veterinarian Holly (Sally Hawkins). Though the    
  path to love is never easy and just when you think you've got a handle on  
  it, it takes flight. Susan comes back into his life, and Doug must learn a 
  valuable lesson, lean on his friends and follow his heart.                 
                                                                             
 
 
 
                                                                             
  Video/Audio ...                                                            
  Video                                                                                                     
  ID                               : 0                                                                      
  Format                           : MPEG-4 Visual                                                          
  Format profile                   : Advanced Simple@L5                                                     
  Format settings, BVOP            : 2                                                                      
  Format settings, QPel            : No                                                                     
  Format settings, GMC             : No warppoints                                                          
  Format settings, Matrix          : Default (H.263)                                                        
  Muxing mode                      : Packed bitstream                                                       
  Codec ID                         : XVID                                                                   
  Codec ID/Hint                    : XviD                                                                   
  Duration                         : 1h 41mn                                                                
  Bit rate                         : 1 187 Kbps                                                             
  Width                            : 720 pixels                                                             
  Height                           : 304 pixels                                                             
  Display aspect ratio             : 2.35:1                                                                 
  Frame rate                       : 24.000 fps                                                             
  Color space                      : YUV                                                                    
  Chroma subsampling               : 4:2:0                                                                  
  Bit depth                        : 8 bits                                                                 
  Scan type                        : Progressive                                                            
  Compression mode                 : Lossy                                                                  
  Bits/(Pixel*Frame)               : 0.226                                                                  
  Stream size                      : 864 MiB (72%)                                                          
  Writing library                  : XviD 1.1.0 (UTC 2005-11-22)                                            
                                                                                                            
  Audio                                                                                                     
  ID                               : 1                                                                      
  Format                           : AC-3                                                                   
  Format/Info                      : Audio Coding 3                                                         
  Mode extension                   : CM (complete main)                                                     
  Codec ID                         : 2000                                                                   
  Duration                         : 1h 41mn                                                                
  Bit rate mode                    : Constant                                                               
  Bit rate                         : 448 Kbps                                                               
  Channel(s)                       : 6 channels                                                             
  Channel positions                : Front: L C R, Side: L R, LFE                                           
  Sampling rate                    : 48.0 KHz                                                               
  Bit depth                        : 16 bits                                                                
  Compression mode                 : Lossy                                                                  
  Stream size                      : 326 MiB (27%)                                                          
  Alignment                        : Split accross interleaves                                              
  Interleave, duration             : 42 ms (1.00 video frame)                                               
  Interleave, preload duration     : 500 ms                                                                 
                                                                                                            
                                                                             
 
              

                             Greets to all P2P groups